ViewSwitcher(
<svg width="19" height="15" viewBox="0 0 19 15" fill="none" xmlns="http://www.w3.org/2000/svg">
<path d="M1.5 5.25V2.5C1.5 1.94772 1.94772 1.5 2.5 1.5H7.235C7.78728 1.5 8.235 1.94772 8.235 2.5V5.25C8.235 5.80228 7.78728 6.25 7.235 6.25H2.5C1.94772 6.25 1.5 5.80228 1.5 5.25Z" stroke="#1E1E1E" stroke-opacity="0.8" stroke-width="1.5"/>
<path d="M10.765 5.25V2.5C10.765 1.94772 11.2127 1.5 11.765 1.5H16.5C17.0523 1.5 17.5 1.94772 17.5 2.5V5.25C17.5 5.80228 17.0523 6.25 16.5 6.25H11.765C11.2127 6.25 10.765 5.80228 10.765 5.25Z" stroke="#1E1E1E" stroke-opacity="0.8" stroke-width="1.5"/>
<path d="M1.5 12.5V9.75C1.5 9.19772 1.94772 8.75 2.5 8.75H7.235C7.78728 8.75 8.235 9.19772 8.235 9.75V12.5C8.235 13.0523 7.78728 13.5 7.235 13.5H2.5C1.94772 13.5 1.5 13.0523 1.5 12.5Z" stroke="#1E1E1E" stroke-opacity="0.8" stroke-width="1.5"/>
<path d="M10.765 12.5V9.75C10.765 9.19772 11.2127 8.75 11.765 8.75H16.5C17.0523 8.75 17.5 9.19772 17.5 9.75V12.5C17.5 13.0523 17.0523 13.5 16.5 13.5H11.765C11.2127 13.5 10.765 13.0523 10.765 12.5Z" stroke="#1E1E1E" stroke-opacity="0.8" stroke-width="1.5"/>
</svg>
