<svg width="23" height="20" viewBox="0 0 23 20" fill="none" xmlns="http://www.w3.org/2000/svg">
<path d="M8.99892 1.25C9.96117 -0.416667 12.3668 -0.416667 13.329 1.25L21.9893 16.25C22.9515 17.9167 21.7487 20 19.8242 20H2.50373C0.579229 20 -0.623584 17.9167 0.338666 16.25L8.99892 1.25Z" fill="#FFC738"/>
<path d="M12.3826 5.74902L12.1922 12.751H10.4051L10.2097 5.74902H12.3826ZM11.2986 16.751C10.9763 16.751 10.6996 16.637 10.4685 16.4092C10.2374 16.1781 10.1235 15.9014 10.1267 15.5791C10.1235 15.2601 10.2374 14.9867 10.4685 14.7588C10.6996 14.5309 10.9763 14.417 11.2986 14.417C11.6079 14.417 11.8797 14.5309 12.114 14.7588C12.3484 14.9867 12.4672 15.2601 12.4705 15.5791C12.4672 15.7939 12.4103 15.9909 12.2996 16.1699C12.1922 16.3457 12.0506 16.4873 11.8748 16.5947C11.699 16.6989 11.5069 16.751 11.2986 16.751Z" fill="#1E1E1E"/>
</svg>
